<?xml version="1.0" encoding="UTF-8" standalone="no"?><!DOCTYPE svg PUBLIC "-//W3C//DTD SVG 1.1//EN" "http://www.w3.org/Graphics/SVG/1.1/DTD/svg11.dtd"><svg width="100%" height="100%" viewBox="0 0 435 228" version="1.1" xmlns="http://www.w3.org/2000/svg" xmlns:xlink="http://www.w3.org/1999/xlink" xml:space="preserve" xmlns:serif="http://www.serif.com/" style="fill-rule:evenodd;clip-rule:evenodd;stroke-linejoin:round;stroke-miterlimit:2;"><g><path d="M133.403,94.236l-4.907,-70.728l82.075,-5.694l-63.873,178.128l-6.209,0.431l-5.489,-79.121l-113.88,110.268l53.76,-91.2l-74.88,-47.28l134.4,-89.04l-38.64,74.16l37.643,20.076Zm20.964,26.105l35.698,-83.464l-42.545,2.601l6.847,80.863Zm139.813,-108.328l63.252,-4.388l-40.123,87.623l53.349,85.156l-45.808,3.178l-0.448,-6.35l-12.987,0.917l-1.404,-19.893l8.675,-0.612l-0.472,-6.684l-8.675,0.612l-1.404,-19.893l12.987,-0.917l-0.466,-6.605l-21.662,1.529l4.193,59.4l-8.624,0.598l-0.446,-6.314l-12.987,0.917l-8.087,-117.932l21.139,-50.341Zm73.409,-5.093l54.962,-3.813l-29.388,69.086l27.791,17.43l-24.048,23.965l37.638,62.384l-53.764,3.73l-53.21,-84.936l40.019,-87.845Zm-94.693,180.266l-15.322,1.063c1.493,-0.651 2.775,-1.948 3.846,-3.893c1.512,-2.746 2.14,-5.922 1.885,-9.53l-2.337,-33.103c-0.255,-3.607 -1.323,-6.664 -3.205,-9.17c-1.882,-2.506 -4.001,-3.676 -6.356,-3.51l-8.675,0.612c-2.355,0.166 -4.298,1.61 -5.829,4.33c-1.531,2.72 -2.167,5.911 -1.909,9.571l2.337,33.103c0.258,3.66 1.336,6.73 3.234,9.208c1.329,1.735 2.769,2.822 4.322,3.261l-15.319,1.063l-4.187,-59.311l-8.623,0.609l1.871,26.498l-8.675,0.612l-1.871,-26.498l-8.675,0.612l4.185,59.279l-47.142,3.271l63.873,-178.128l0.025,-0.002l43.763,45.835l8.785,124.216Zm-47.578,-142.631l-21.966,65.49l48.898,-3.68l-1.729,-35.898l-25.203,-25.912Zm-4.375,146.236l-8.676,0.602l-1.843,-26.108l8.675,-0.612l1.844,26.118Zm22.726,-47.845c-0.131,-1.857 0.182,-3.465 0.939,-4.824c0.757,-1.36 1.724,-2.081 2.901,-2.164c1.212,-0.086 2.288,0.492 3.229,1.731c0.94,1.24 1.476,2.788 1.607,4.645l2.337,33.103c0.127,1.804 -0.186,3.399 -0.941,4.785c-0.755,1.386 -1.738,2.122 -2.95,2.208c-1.177,0.083 -2.237,-0.508 -3.179,-1.775c-0.942,-1.266 -1.477,-2.801 -1.604,-4.605l-2.337,-33.103Z"/></g><path d="M279.36,141.36l52.32,43.92" style="fill:none;"/></svg>