<?xml version="1.0" encoding="UTF-8" standalone="no"?><!DOCTYPE svg PUBLIC "-//W3C//DTD SVG 1.1//EN" "http://www.w3.org/Graphics/SVG/1.1/DTD/svg11.dtd"><svg width="100%" height="100%" viewBox="0 0 435 228" version="1.1" xmlns="http://www.w3.org/2000/svg" xmlns:xlink="http://www.w3.org/1999/xlink" xml:space="preserve" xmlns:serif="http://www.serif.com/" style="fill-rule:evenodd;clip-rule:evenodd;stroke-linejoin:round;stroke-miterlimit:2;"><path d="M158.295,163.602l-11.597,32.34l-6.209,0.431l-5.489,-79.121l-113.88,110.268l53.76,-91.2l-74.88,-47.28l134.4,-89.04l-38.64,74.16l37.643,20.076l-4.907,-70.728l82.075,-5.694l-38.847,108.336l-10.2,-22.542l28.541,-66.73l-42.545,2.601l3.456,40.819l-0.497,-1.097l7.815,84.402Zm139.725,-117.748c16.435,-20.68 59.412,-38.228 59.412,-38.228c0,0 -42.327,60.026 -40.123,88.823c2.204,28.796 53.349,83.956 53.349,83.956c0,0 -54.51,4.505 -80.368,5.576c-12.489,0.517 -17.423,-69.3 -14.608,-91.706c2.247,-17.881 10.068,-32.981 22.339,-48.421Zm69.569,-38.933l54.962,-3.813l-29.388,69.086l27.791,17.43l-24.048,23.965l37.638,62.384l-53.764,3.73c0,0 -51.012,-56.139 -53.21,-84.936c-2.198,-28.797 40.019,-87.845 40.019,-87.845Zm-94.693,180.266l-116.447,8.079l63.873,-178.128l0.025,-0.002l43.763,45.835l8.785,124.216Zm-47.578,-142.631l-21.966,65.49l48.898,-3.68l-1.729,-35.898l-25.203,-25.912Z"/></svg>