<?xml version="1.0" encoding="UTF-8" standalone="no"?><!DOCTYPE svg PUBLIC "-//W3C//DTD SVG 1.1//EN" "http://www.w3.org/Graphics/SVG/1.1/DTD/svg11.dtd"><svg width="100%" height="100%" viewBox="0 0 435 228" version="1.1" xmlns="http://www.w3.org/2000/svg" xmlns:xlink="http://www.w3.org/1999/xlink" xml:space="preserve" xmlns:serif="http://www.serif.com/" style="fill-rule:evenodd;clip-rule:evenodd;stroke-linejoin:round;stroke-miterlimit:2;"><path d="M158.295,163.602l-11.597,32.34l-6.209,0.431l-5.489,-79.121l-113.88,110.268l53.76,-91.2l-74.88,-47.28l134.4,-89.04l-38.64,74.16l37.643,20.076l-4.907,-70.728c0,0 73.11,-18.576 80.315,-1.469c7.205,17.107 -37.087,104.111 -37.087,104.111l-10.2,-22.542c0,0 30.875,-56.042 28.541,-66.73c-2.334,-10.688 -42.545,2.601 -42.545,2.601l3.456,40.819l-0.497,-1.097l7.815,84.402Zm139.725,-117.748c16.435,-20.68 59.412,-38.228 59.412,-38.228c0,0 -42.327,60.026 -40.123,88.823c2.204,28.796 53.349,83.956 53.349,83.956l-89.53,6.122c0,0 -6.822,-70.327 -4.007,-92.732c2.247,-17.881 8.628,-32.501 20.899,-47.941Zm69.569,-38.933l54.962,-3.813l-29.388,69.086l27.791,17.43l-24.048,23.965l37.638,62.384l-53.764,3.73c0,0 -51.012,-56.139 -53.21,-84.936c-2.198,-28.797 40.019,-87.845 40.019,-87.845Zm-94.693,180.266l-116.447,8.079c0,0 43.763,-113.301 55.717,-142.487c3.303,-8.066 4.782,-17.22 5.105,-23.688c0.257,-5.144 -3.169,-15.123 -3.169,-15.123c0,0 37.671,30.303 46.018,49.708c8.758,20.361 12.776,123.512 12.776,123.512Zm-45.465,-141.223l-24.079,64.081l48.898,-3.68c0,0 -1.231,-24.892 -5.719,-35.193c-4.489,-10.302 -19.099,-25.208 -19.099,-25.208Z"/></svg>