<?xml version="1.0" encoding="UTF-8" standalone="no"?><!DOCTYPE svg PUBLIC "-//W3C//DTD SVG 1.1//EN" "http://www.w3.org/Graphics/SVG/1.1/DTD/svg11.dtd"><svg width="100%" height="100%" viewBox="0 0 435 228" version="1.1" xmlns="http://www.w3.org/2000/svg" xmlns:xlink="http://www.w3.org/1999/xlink" xml:space="preserve" xmlns:serif="http://www.serif.com/" style="fill-rule:evenodd;clip-rule:evenodd;stroke-linejoin:round;stroke-miterlimit:2;"><path d="M193.924,192.665l63.65,-4.416c1.493,-0.651 2.775,-1.948 3.846,-3.893c1.512,-2.746 2.14,-5.922 1.885,-9.53l-2.337,-33.103c-0.255,-3.607 -1.323,-6.664 -3.205,-9.17c-1.882,-2.506 -4.001,-3.676 -6.356,-3.51l-8.675,0.612c-2.355,0.166 -4.298,1.61 -5.829,4.33c-1.531,2.72 -2.167,5.911 -1.909,9.571l2.337,33.103c0.258,3.66 1.336,6.73 3.234,9.208c1.329,1.735 2.769,2.822 4.322,3.261l-15.319,1.063l-4.187,-59.311l-8.623,0.609l1.871,26.498l-8.675,0.612l-1.871,-26.498l-8.675,0.612l4.185,59.279l-9.667,0.671Zm100.637,-6.982l-21.664,1.503l-4.487,-59.298l7.909,-0.734l4.809,53.132l12.987,-0.917l0.446,6.314Zm30.288,-2.101l-21.664,1.503l-4.193,-59.4l21.662,-1.529l0.466,6.605l-12.987,0.917l1.404,19.893l8.675,-0.612l0.472,6.684l-8.675,0.612l1.404,19.893l12.987,-0.917l0.448,6.35Zm-81.179,-40.637c-0.131,-1.857 0.182,-3.465 0.939,-4.824c0.757,-1.36 1.724,-2.081 2.901,-2.164c1.212,-0.086 2.288,0.492 3.229,1.731c0.94,1.24 1.476,2.788 1.607,4.645l2.337,33.103c0.127,1.804 -0.186,3.399 -0.941,4.785c-0.755,1.386 -1.738,2.122 -2.95,2.208c-1.177,0.083 -2.237,-0.508 -3.179,-1.775c-0.942,-1.266 -1.477,-2.801 -1.604,-4.605l-2.337,-33.103Zm-22.726,47.845l-8.676,0.602l-1.843,-26.108l8.675,-0.612l1.844,26.118Z"/></svg>